<svg xmlns="http://www.w3.org/2000/svg" width="40" height="40" viewBox="0 0 45 45">
    <g style="transform: translate(21px, 42px);">
        <path d="M 0 -39.824C -6.024000000000001 -39.824 -11.379999999999999 -34.872 -11.379999999999999 -29.116C -11.379999999999999 -28.716 -11.379999999999999 -28.311999999999998 -11.244 -27.912C -10.975999999999999 -23.759999999999998 -8.836 -20.816 -6.692 -17.604C -3.8840000000000003 -13.452 -0.6679999999999999 -8.636000000000001 -0.6679999999999999 -0.33599999999999997C -0.6679999999999999 0.06799999999999999 -0.4 0.33599999999999997 0 0.33599999999999997S 0.6679999999999999 0.06799999999999999 0.6679999999999999 -0.33599999999999997C 0.6679999999999999 -8.768 3.8840000000000003 -13.452 6.692 -17.604C 8.836 -20.816 10.975999999999999 -23.759999999999998 11.244 -27.776C 11.244 -28.18 11.379999999999999 -28.580000000000002 11.379999999999999 -28.984C 11.379999999999999 -34.872 6.024000000000001 -39.824 0 -39.824z" style="stroke-width: 1; fill: rgb(232, 75, 54); stroke: rgb(251, 237, 234);"/>
        <path class="inner" d="M 0 -34.666000000000004C 2.5340000000000003 -34.666000000000004 4.666 -32.534 4.666 -30S 2.5340000000000003 -25.334 0 -25.334S -4.666 -27.466 -4.666 -30S -2.5340000000000003 -34.666000000000004 0 -34.666000000000004z" style="fill: white; stroke: rgb(255, 165, 165);"/>
    </g>
</svg>