<?xml version="1.0" encoding="UTF-8"?>
<svg width="68px" height="21px" viewBox="0 0 68 21" version="1.1" xmlns="http://www.w3.org/2000/svg" xmlns:xlink="http://www.w3.org/1999/xlink">
    <!-- Generator: Sketch 64 (93537) - https://sketch.com -->
    <title>logo</title>
    <desc>Created with Sketch.</desc>
    <g id="Setting---pricing" stroke="none" stroke-width="1" fill="none" fill-rule="evenodd">
        <g id="1" transform="translate(-211.000000, -232.000000)">
            <g id="Group" transform="translate(132.000000, 232.000000)">
                <g id="logo" transform="translate(79.000000, 0.000000)">
                    <text id="Catalyst" font-family="ProximaNova-Semibold, Proxima Nova" font-size="12.6" font-weight="500" fill="#000000">
                        <tspan x="22.1392705" y="15.5034088">Catalyst</tspan>
                    </text>
                    <g id="Group-4" fill-rule="nonzero">
                        <path d="M0.783539412,15.2006646 C0.313415765,14.9656028 -4.26832649e-15,14.652187 -4.26832649e-15,14.0253555 L-4.26832649e-15,11.2046136 C-4.26832649e-15,10.8128439 0.156707882,10.4210742 0.548477588,10.1860124 L6.18996135,6.26831529 L9.87259659,8.61893353 L4.77959041,12.3015688 L10.656136,15.5140804 L10.656136,20.3720247 L0.783539412,15.2006646 L0.783539412,15.2006646 Z M1.64543276,10.7344899 C1.332017,10.9695518 1.09695518,11.3613215 1.09695518,11.7530912 L1.09695518,13.3985239 C1.09695518,13.8686476 1.332017,14.2604173 1.72378671,14.4954791 L9.63753477,18.5698841 L9.63753477,16.1409119 L4.15275888,13.1634621 L3.68263524,12.9284003 C3.52592735,12.8500464 3.36921947,12.6149845 3.36921947,12.4582766 C3.36921947,12.2232148 3.44757341,12.0665069 3.60428129,11.988153 L3.996051,11.6747372 L7.91374806,8.77564141 L6.11160741,7.67868624 L1.64543276,10.7344899 L1.64543276,10.7344899 Z" id="Shape" fill="#006EBB"></path>
                        <path d="M16.7677434,5.64148377 C17.2378671,5.87654559 17.5512828,6.18996135 17.5512828,6.81679288 L17.5512828,9.63753477 C17.5512828,10.0293045 17.3945749,10.4210742 17.0028052,10.656136 L11.3613215,14.5738331 L7.67868624,12.2232148 L12.7716924,8.54057959 L6.89514682,4.85794435 L6.89514682,3.41466119e-15 L16.7677434,5.64148377 L16.7677434,5.64148377 Z M15.984204,10.0293045 C16.2976198,9.79424265 16.5326816,9.40247294 16.5326816,9.01070324 L16.5326816,7.36527047 C16.5326816,6.89514682 16.2976198,6.50337712 15.9058501,6.26831529 L7.992102,1.72378671 L7.992102,4.15275888 L13.4768779,7.60033229 L13.9470015,7.83539412 C14.1037094,7.91374806 14.2604173,8.14880988 14.2604173,8.30551777 C14.2604173,8.54057959 14.1820634,8.69728747 14.0253555,8.77564141 L13.6335858,9.08905718 L9.71588871,11.988153 L11.5180294,13.0851082 L15.984204,10.0293045 L15.984204,10.0293045 Z" id="Shape" fill="#F80015"></path>
                    </g>
                </g>
            </g>
        </g>
    </g>
</svg>