<svg width="40" height="40" viewBox="-5 -5 60 60" xmlns="http://www.w3.org/2000/svg"><g fill="#586ace"><path d="M48.914 28.239a1.465 1.465 0 00-1.794 1.036l-.034.126-3.39-.908a19.047 19.047 0 000-6.986l3.39-.909.034.127a1.465 1.465 0 102.83-.758l-.826-3.083a1.465 1.465 0 10-2.83.758l.034.127-3.39.908a19.027 19.027 0 00-3.5-6.043l2.488-2.489.093.093a1.465 1.465 0 102.071-2.071L41.834 5.91a1.465 1.465 0 10-2.072 2.071l.093.093-2.489 2.488a19.026 19.026 0 00-6.043-3.5l.908-3.39.127.034a1.465 1.465 0 00.758-2.83L30.033.05a1.465 1.465 0 10-.758 2.83l.126.034-.908 3.39a19.047 19.047 0 00-6.986 0l-.908-3.39.126-.034a1.465 1.465 0 00-.758-2.83l-3.083.826a1.465 1.465 0 10.759 2.83l.126-.034.909 3.39a19.028 19.028 0 00-6.044 3.5l-2.489-2.488.093-.093A1.465 1.465 0 108.167 5.91L5.91 8.166a1.465 1.465 0 102.071 2.072l.093-.093 2.488 2.489a19.03 19.03 0 00-3.5 6.043l-3.39-.909.034-.126a1.465 1.465 0 10-2.83-.758L.05 19.967a1.465 1.465 0 102.83.758l.034-.126 3.39.908a19.05 19.05 0 000 6.986l-3.39.908-.034-.126a1.465 1.465 0 10-2.83.758l.826 3.083a1.465 1.465 0 102.83-.758l-.034-.127 3.39-.908a19.028 19.028 0 003.5 6.043l-2.488 2.489-.093-.093a1.465 1.465 0 10-2.072 2.072l2.257 2.256a1.465 1.465 0 102.072-2.071l-.093-.093 2.488-2.488a19.026 19.026 0 006.044 3.5l-.908 3.39-.127-.034a1.465 1.465 0 00-.758 2.83l3.083.826a1.465 1.465 0 10.758-2.83l-.126-.034.908-3.39a19.047 19.047 0 006.986 0l.908 3.39-.127.034a1.465 1.465 0 10.759 2.83l3.083-.826a1.465 1.465 0 10-.759-2.83l-.126.034-.909-3.39a19.028 19.028 0 006.044-3.5l2.488 2.488-.092.093a1.465 1.465 0 102.071 2.071l2.257-2.256a1.465 1.465 0 10-2.071-2.072l-.093.093-2.489-2.489a19.026 19.026 0 003.5-6.043l3.39.908-.034.127a1.465 1.465 0 102.83.758l.826-3.083a1.464 1.464 0 00-1.035-1.794zM25 41.089C16.128 41.09 8.91 33.873 8.91 25S16.128 8.91 25 8.91 41.09 16.128 41.09 25 33.872 41.09 25 41.09z"/><circle cx="25" cy="14.017" r="1.465"/><circle cx="25" cy="35.983" r="1.465"/><circle cx="21.862" cy="28.138" r="1.465"/><circle cx="28.138" cy="28.138" r="1.465"/><circle cx="28.138" cy="21.862" r="1.465"/><circle cx="21.862" cy="21.862" r="1.465"/><circle cx="35.983" cy="25" r="1.465"/><circle cx="14.017" cy="25" r="1.465"/><circle cx="32.766" cy="17.234" r="1.465"/><circle cx="17.234" cy="32.767" r="1.465"/><circle cx="32.766" cy="32.767" r="1.465"/><circle cx="17.234" cy="17.234" r="1.465"/></g></svg>